<svg height="476" preserveAspectRatio="xMidYMid meet" viewBox="0 0 4770 4760" width="477" xmlns="http://www.w3.org/2000/svg"><g fill="#f26624"><path d="m2055 4750c-49-4-139-13-200-20-222-24-490-86-612-141-24-10-46-19-49-19-6 0-21-6-119-51-27-13-56-23-62-22-7 0-10-3-7-8s-1-9-9-9c-7 0-36-14-63-32-27-17-74-47-104-66-141-91-315-259-421-407-72-101-174-276-184-318-4-15-10-27-15-27-4 0-12-19-19-42-7-24-19-56-26-73-8-16-21-57-30-90s-20-69-25-80c-17-36-50-198-70-340-29-202-37-293-39-442l-2-133h1166 1165v1165 1165l-92-2c-51-1-133-4-183-8z"/><path d="m2440 3595v-1165h1165 1165v153c-1 158-4 197-39 437-23 157-111 504-132 520-3 3-12 23-19 45s-30 73-51 114-35 79-32 84c3 6 1 7-5 3-7-4-12-1-12 6 0 11-44 84-68 113-5 6-17 24-27 40-39 62-88 122-157 193-119 124-189 180-374 300-32 20-257 129-284 137-14 4-38 13-55 20-57 24-190 63-270 80-44 9-98 21-120 26-98 21-471 57-607 58l-78 1z"/><path d="m3 2128c4-106 11-218 16-248 6-30 15-95 21-145 11-89 54-292 70-330 5-11 16-47 25-80s20-64 25-70c4-5 10-23 14-38 4-16 22-62 41-104 19-41 35-76 35-77 0-2 21-41 48-87 99-176 229-336 373-458 94-80 105-88 249-180 14-9 61-33 105-55 44-21 91-44 105-51s43-18 65-25 45-16 50-20c6-5 37-16 70-25s69-20 80-25c32-15 260-61 375-76 58-7 135-18 173-24 37-5 139-10 227-10h160v1160 1160h-1167-1166z"/><path d="m4355 2305c-123-13-278-37-350-54-163-38-314-85-392-121-24-11-46-20-50-20-12 0-215-105-238-123-5-4-53-37-105-74-208-147-398-372-515-608-22-44-43-82-46-85s-12-23-19-45-18-53-26-70c-92-211-174-666-174-977v-128h1165 1165v1160 1160l-147-1c-82-1-202-7-268-14z"/></g><g fill="#8dc641"><path d="m2055 4750c-49-4-139-13-200-20-222-24-490-86-612-141-24-10-46-19-49-19-6 0-21-6-119-51-27-13-56-23-62-22-7 0-10-3-7-8s-1-9-9-9c-7 0-36-14-63-32-27-17-74-47-104-66-141-91-315-259-421-407-72-101-174-276-184-318-4-15-10-27-15-27-4 0-12-19-19-42-7-24-19-56-26-73-8-16-21-57-30-90s-20-69-25-80c-17-36-50-198-70-340-29-202-37-293-39-442l-2-133h1166 1165v1165 1165l-92-2c-51-1-133-4-183-8z"/><path d="m2440 3595v-1165h1165 1165v153c-1 158-4 197-39 437-23 157-111 504-132 520-3 3-12 23-19 45s-30 73-51 114-35 79-32 84c3 6 1 7-5 3-7-4-12-1-12 6 0 11-44 84-68 113-5 6-17 24-27 40-39 62-88 122-157 193-119 124-189 180-374 300-32 20-257 129-284 137-14 4-38 13-55 20-57 24-190 63-270 80-44 9-98 21-120 26-98 21-471 57-607 58l-78 1z"/><path d="m4355 2305c-123-13-278-37-350-54-163-38-314-85-392-121-24-11-46-20-50-20-12 0-215-105-238-123-5-4-53-37-105-74-208-147-398-372-515-608-22-44-43-82-46-85s-12-23-19-45-18-53-26-70c-92-211-174-666-174-977v-128h1165 1165v1160 1160l-147-1c-82-1-202-7-268-14z"/></g><g fill="#26ace2"><path d="m2055 4750c-49-4-139-13-200-20-222-24-490-86-612-141-24-10-46-19-49-19-6 0-21-6-119-51-27-13-56-23-62-22-7 0-10-3-7-8s-1-9-9-9c-7 0-36-14-63-32-27-17-74-47-104-66-141-91-315-259-421-407-72-101-174-276-184-318-4-15-10-27-15-27-4 0-12-19-19-42-7-24-19-56-26-73-8-16-21-57-30-90s-20-69-25-80c-17-36-50-198-70-340-29-202-37-293-39-442l-2-133h1166 1165v1165 1165l-92-2c-51-1-133-4-183-8z"/><path d="m2440 3595v-1165h1165 1165v153c-1 158-4 197-39 437-23 157-111 504-132 520-3 3-12 23-19 45s-30 73-51 114-35 79-32 84c3 6 1 7-5 3-7-4-12-1-12 6 0 11-44 84-68 113-5 6-17 24-27 40-39 62-88 122-157 193-119 124-189 180-374 300-32 20-257 129-284 137-14 4-38 13-55 20-57 24-190 63-270 80-44 9-98 21-120 26-98 21-471 57-607 58l-78 1z"/></g><path d="m2440 3595v-1165h1165 1165v153c-1 158-4 197-39 437-23 157-111 504-132 520-3 3-12 23-19 45s-30 73-51 114-35 79-32 84c3 6 1 7-5 3-7-4-12-1-12 6 0 11-44 84-68 113-5 6-17 24-27 40-39 62-88 122-157 193-119 124-189 180-374 300-32 20-257 129-284 137-14 4-38 13-55 20-57 24-190 63-270 80-44 9-98 21-120 26-98 21-471 57-607 58l-78 1z" fill="#ffc313"/></svg>